<!-- Exported by Character Map UWP -->
<svg  viewBox="0 0 1024 1024"  xmlns="http://www.w3.org/2000/svg" xmlns:xlink="http://www.w3.org/1999/xlink">
  <path d="M192,80C192,69 194.083,58.6667 198.25,49C202.417,39.3334 208.167,30.8334 215.5,23.5C222.833,16.1667 231.333,10.4167 241,6.25C250.667,2.08337 261,0 272,0L752,0C763,0 773.333,2.08337 783,6.25C792.667,10.4167 801.167,16.1667 808.5,23.5C815.833,30.8334 821.583,39.3334 825.75,49C829.917,58.6667 832,69 832,80L832,128L944,128C955,128 965.333,130.083 975,134.25C984.667,138.417 993.167,144.167 1000.5,151.5C1007.83,158.833 1013.58,167.333 1017.75,177C1021.92,186.667 1024,197 1024,208L1024,496C1024,507 1021.92,517.333 1017.75,527C1013.58,536.667 1007.83,545.167 1000.5,552.5C993.167,559.833 984.667,565.583 975,569.75C965.333,573.917 955,576 944,576L830.5,576C828.5,585.333 825.083,593.917 820.25,601.75C815.417,609.583 809.5,616.333 802.5,622C795.5,627.667 787.667,632.083 779,635.25C770.333,638.417 761.333,640 752,640L272,640C262.667,640 253.667,638.417 245,635.25C236.333,632.083 228.5,627.667 221.5,622C214.5,616.333 208.583,609.583 203.75,601.75C198.917,593.917 195.5,585.333 193.5,576L80,576C75.3333,576 71.5,577.5 68.5,580.5C65.5,583.5 64,587.333 64,592L64,880C64,884.667 65.5,888.5 68.5,891.5C71.5,894.5 75.3333,896 80,896L192,896L192,848C192,837 194.083,826.667 198.25,817C202.417,807.333 208.167,798.833 215.5,791.5C222.833,784.167 231.333,778.417 241,774.25C250.667,770.083 261,768 272,768L752,768C763,768 773.333,770.083 783,774.25C792.667,778.417 801.167,784.167 808.5,791.5C815.833,798.833 821.583,807.333 825.75,817C829.917,826.667 832,837 832,848L832,944C832,955 829.917,965.333 825.75,975C821.583,984.667 815.833,993.167 808.5,1000.5C801.167,1007.83 792.667,1013.58 783,1017.75C773.333,1021.92 763,1024 752,1024L272,1024C262.667,1024 253.667,1022.42 245,1019.25C236.333,1016.08 228.5,1011.67 221.5,1006C214.5,1000.33 208.583,993.583 203.75,985.75C198.917,977.917 195.5,969.333 193.5,960L80,960C69,960 58.6667,957.917 49,953.75C39.3333,949.583 30.8333,943.833 23.5,936.5C16.1667,929.167 10.4167,920.667 6.25,911C2.08333,901.333 0,891 0,880L0,592C0,581 2.08333,570.667 6.25,561C10.4167,551.333 16.1667,542.833 23.5,535.5C30.8333,528.167 39.3333,522.417 49,518.25C58.6667,514.083 69,512 80,512L192,512L192,464C192,453 194.083,442.667 198.25,433C202.417,423.333 208.167,414.833 215.5,407.5C222.833,400.167 231.333,394.417 241,390.25C250.667,386.083 261,384 272,384L752,384C763,384 773.333,386.083 783,390.25C792.667,394.417 801.167,400.167 808.5,407.5C815.833,414.833 821.583,423.333 825.75,433C829.917,442.667 832,453 832,464L832,512L944,512C948.667,512 952.5,510.5 955.5,507.5C958.5,504.5 960,500.667 960,496L960,208C960,203.333 958.5,199.5 955.5,196.5C952.5,193.5 948.667,192 944,192L830.5,192C828.5,201.333 825.083,209.917 820.25,217.75C815.417,225.583 809.5,232.333 802.5,238C795.5,243.667 787.667,248.083 779,251.25C770.333,254.417 761.333,256 752,256L272,256C261,256 250.667,253.917 241,249.75C231.333,245.583 222.833,239.833 215.5,232.5C208.167,225.167 202.417,216.667 198.25,207C194.083,197.333 192,187 192,176ZM272,64C267.333,64.0001 263.5,65.5001 260.5,68.5C257.5,71.5001 256,75.3334 256,80L256,176C256,180.667 257.5,184.5 260.5,187.5C263.5,190.5 267.333,192 272,192L752,192C756.667,192 760.5,190.5 763.5,187.5C766.5,184.5 768,180.667 768,176L768,80C768,75.3334 766.5,71.5001 763.5,68.5C760.5,65.5001 756.667,64.0001 752,64ZM272,448C267.333,448 263.5,449.5 260.5,452.5C257.5,455.5 256,459.333 256,464L256,560C256,564.667 257.5,568.5 260.5,571.5C263.5,574.5 267.333,576 272,576L752,576C756.667,576 760.5,574.5 763.5,571.5C766.5,568.5 768,564.667 768,560L768,464C768,459.333 766.5,455.5 763.5,452.5C760.5,449.5 756.667,448 752,448ZM256,848L256,944C256,948.667 257.5,952.5 260.5,955.5C263.5,958.5 267.333,960 272,960L752,960C756.667,960 760.5,958.5 763.5,955.5C766.5,952.5 768,948.667 768,944L768,848C768,843.333 766.5,839.5 763.5,836.5C760.5,833.5 756.667,832 752,832L272,832C267.333,832 263.5,833.5 260.5,836.5C257.5,839.5 256,843.333 256,848Z" fill="#FFFFFF" fill-opacity="1">
  </path>
</svg>
