<!-- Exported by Character Map UWP -->
<svg height="100%" viewBox="151 68 809 893" width="100%" xmlns="http://www.w3.org/2000/svg" xmlns:xlink="http://www.w3.org/1999/xlink">
  <path d="M151,757.5C151,741.167 156,727.417 166,716.25C176,705.083 188.5,697.667 203.5,694C234.833,686 263.917,675.833 290.75,663.5C317.583,651.167 343.833,634.833 369.5,614.5C394.5,594.833 416.833,572.75 436.5,548.25C456.167,523.75 472.75,497.5 486.25,469.5C499.75,441.5 510.083,412.25 517.25,381.75C524.417,351.25 528,320 528,288C528,264.667 526,242.083 522,220.25C518,198.417 512.667,176.333 506,154C505,150.333 504.083,146.667 503.25,143C502.417,139.333 502,135.667 502,132C502,123.333 503.583,115.083 506.75,107.25C509.917,99.4167 514.25,92.5834 519.75,86.75C525.25,80.9167 531.833,76.25 539.5,72.75C547.167,69.25 555.333,67.5 564,67.5C565.667,67.5 567.083,67.5 568.25,67.5C569.417,67.5 570.833,67.6667 572.5,68C609.5,73.3334 643.833,82.1667 675.5,94.5C707.167,106.833 738.333,123.833 769,145.5C799,166.833 825.833,191 849.5,218C873.167,245 893.167,274.083 909.5,305.25C925.833,336.417 938.333,369.417 947,404.25C955.667,439.083 960,475 960,512C960,553.333 954.667,593.083 944,631.25C933.333,669.417 918.25,705.083 898.75,738.25C879.25,771.417 855.917,801.583 828.75,828.75C801.583,855.917 771.417,879.25 738.25,898.75C705.083,918.25 669.417,933.333 631.25,944C593.083,954.667 553.333,960 512,960C479.667,960 447.083,956.333 414.25,949C381.417,941.667 349.917,931 319.75,917C289.583,903 261.25,885.833 234.75,865.5C208.25,845.167 185,821.833 165,795.5C160.333,789.5 156.833,783.583 154.5,777.75C152.167,771.917 151,765.167 151,757.5ZM896,512C896,464.667 887.667,419.417 871,376.25C854.333,333.083 831.25,294.5 801.75,260.5C772.25,226.5 737.417,198.25 697.25,175.75C657.083,153.25 613.5,138.667 566.5,132L566.5,133C566.5,134 567.167,136.75 568.5,141.25C569.833,145.75 571.333,150.833 573,156.5C574.667,162.167 576.25,167.667 577.75,173C579.25,178.333 580.167,182 580.5,184C588.167,218.667 592,253.333 592,288C592,325 587.917,361.167 579.75,396.5C571.583,431.833 559.75,465.583 544.25,497.75C528.75,529.917 509.667,560.083 487,588.25C464.333,616.417 438.5,642 409.5,665C380.167,688.333 349.917,707.167 318.75,721.5C287.583,735.833 253.833,747.5 217.5,756.5L216,757C234.333,779 254.667,798.667 277,816C299.333,833.333 323.167,847.917 348.5,859.75C373.833,871.583 400.25,880.583 427.75,886.75C455.25,892.917 483.333,896 512,896C547.333,896 581.333,891.417 614,882.25C646.667,873.083 677.25,860.167 705.75,843.5C734.25,826.833 760.167,806.833 783.5,783.5C806.833,760.167 826.833,734.25 843.5,705.75C860.167,677.25 873.083,646.667 882.25,614C891.417,581.333 896,547.333 896,512Z" fill="#FFFFFF" fill-opacity="1">
  </path>
</svg>
