<svg
  xmlns="http://www.w3.org/2000/svg"
  version="1.1"
  width="100%"
  height="100%"
  viewBox="0 0 256 256"
  xmlns:xlink="http://www.w3.org/1999/xlink"
>
  <g>
    <path
      style="opacity: 0.999"
      fill="#797674"
      d="M 44.5,16.5 C 83.8347,16.3333 123.168,16.5 162.5,17C 178.667,33.1667 194.833,49.3333 211,65.5C 211.5,123.166 211.667,180.832 211.5,238.5C 155.833,238.5 100.167,238.5 44.5,238.5C 44.5,164.5 44.5,90.5 44.5,16.5 Z"
    />
  </g>
  <g>
    <path
      style="opacity: 1"
      fill="#f9f9f9"
      d="M 47.5,19.5 C 84.8333,19.5 122.167,19.5 159.5,19.5C 159.333,35.1702 159.5,50.8369 160,66.5C 160.5,67 161,67.5 161.5,68C 177.163,68.4999 192.83,68.6666 208.5,68.5C 208.5,124.167 208.5,179.833 208.5,235.5C 154.833,235.5 101.167,235.5 47.5,235.5C 47.5,163.5 47.5,91.5 47.5,19.5 Z"
    />
  </g>
  <g>
    <path
      style="opacity: 1"
      fill="#f7f6f6"
      d="M 162.5,21.5 C 177.299,35.7981 191.965,50.2981 206.5,65C 191.837,65.4999 177.17,65.6666 162.5,65.5C 162.5,50.8333 162.5,36.1667 162.5,21.5 Z"
    />
  </g>
</svg>
