<!-- Exported by Character Map UWP -->
<svg height="100%" viewBox="32 0 960 1024" width="100%" xmlns="http://www.w3.org/2000/svg" xmlns:xlink="http://www.w3.org/1999/xlink">
  <path d="M480,416L480,32C480,23.3334 483.167,15.8334 489.5,9.5C495.833,3.16669 503.333,0 512,0C520.667,0 528.167,3.16669 534.5,9.5C540.833,15.8334 544,23.3334 544,32L544,416C544,424.667 540.833,432.167 534.5,438.5C528.167,444.833 520.667,448 512,448C503.333,448 495.833,444.833 489.5,438.5C483.167,432.167 480,424.667 480,416ZM32,544C32,502.333 37.5,461.25 48.5,420.75C59.5,380.25 75.25,341.917 95.75,305.75C116.25,269.583 141.083,236.417 170.25,206.25C199.417,176.083 232.167,150.667 268.5,130C273.5,127 279,125.5 285,125.5C293.667,125.5 301.167,128.667 307.5,135C313.833,141.333 317,148.833 317,157.5C317,164.167 315.583,169.5 312.75,173.5C309.917,177.5 306,181.333 301,185C289.333,193 277.917,200.75 266.75,208.25C255.583,215.75 244.667,224.333 234,234C212.667,253.333 193.5,274.833 176.5,298.5C159.5,322.167 145,347.167 133,373.5C121,399.833 111.833,427.167 105.5,455.5C99.1667,483.833 96,512.5 96,541.5C96,580.167 100.917,617.25 110.75,652.75C120.583,688.25 134.417,721.5 152.25,752.5C170.083,783.5 191.667,811.75 217,837.25C242.333,862.75 270.417,884.583 301.25,902.75C332.083,920.917 365.25,935 400.75,945C436.25,955 473.333,960 512,960C550.667,960 587.75,955 623.25,945C658.75,935 691.917,920.917 722.75,902.75C753.583,884.583 781.667,862.75 807,837.25C832.333,811.75 853.917,783.5 871.75,752.5C889.583,721.5 903.417,688.167 913.25,652.5C923.083,616.833 928,579.833 928,541.5C928,512.5 924.833,483.833 918.5,455.5C912.167,427.167 903,399.833 891,373.5C879,347.167 864.5,322.167 847.5,298.5C830.5,274.833 811.333,253.333 790,234C779.333,224.333 768.417,215.75 757.25,208.25C746.083,200.75 734.667,193 723,185C718,181.333 714.083,177.5 711.25,173.5C708.417,169.5 707,164.167 707,157.5C707,148.833 710.167,141.333 716.5,135C722.833,128.667 730.333,125.5 739,125.5C745,125.5 750.5,127 755.5,130C791.833,150.667 824.583,176.083 853.75,206.25C882.917,236.417 907.75,269.583 928.25,305.75C948.75,341.917 964.5,380.25 975.5,420.75C986.5,461.25 992,502.333 992,544C992,588 986.25,630.417 974.75,671.25C963.25,712.083 947.083,750.333 926.25,786C905.417,821.667 880.417,854.083 851.25,883.25C822.083,912.417 789.667,937.417 754,958.25C718.333,979.083 680.083,995.25 639.25,1006.75C598.417,1018.25 556,1024 512,1024C467.667,1024 425.083,1018.25 384.25,1006.75C343.417,995.25 305.25,979.083 269.75,958.25C234.25,937.417 201.917,912.417 172.75,883.25C143.583,854.083 118.583,821.75 97.75,786.25C76.9167,750.75 60.75,712.5 49.25,671.5C37.75,630.5 32,588 32,544Z" fill="#FFFFFF" fill-opacity="1">
  </path>
</svg>