<svg height="100%" viewBox="64 64 960 896" width="100%" xmlns="http://www.w3.org/2000/svg" xmlns:xlink="http://www.w3.org/1999/xlink">
  <path d="M64,859.5L64,164.5C64,156.5 66.5,149.583 71.5,143.75C76.5,137.917 83,134.333 91,133L539,64.5C540.333,64.1667 542.167,64.0001 544.5,64C553.5,64.0001 561,67.0834 567,73.25C573,79.4167 576,87 576,96L576,448L907,448L843,392C835.667,385.667 832,377.667 832,368C832,359.333 835.167,351.833 841.5,345.5C847.833,339.167 855.333,336 864,336C872,336 879.167,338.667 885.5,344L1013,456C1020.33,462.667 1024,470.667 1024,480C1024,489.667 1020.33,497.667 1013,504L885.5,616C879.167,621.333 872,624 864,624C855.333,624 847.833,620.833 841.5,614.5C835.167,608.167 832,600.667 832,592C832,582.667 835.667,574.667 843,568L907,512L576,512L576,928C576,936.667 573.083,944.167 567.25,950.5C561.417,956.833 554,960 545,960C542.333,960 540.333,959.833 539,959.5L91,891C83,889.667 76.5,886.083 71.5,880.25C66.5,874.417 64,867.5 64,859.5ZM640,384L640,128L672,128C680.667,128 688.167,131.167 694.5,137.5C700.833,143.833 704,151.333 704,160L704,384ZM128,832L512,891L512,133.5L128,192ZM368,544C368,530.667 372.667,519.333 382,510C391.333,500.667 402.667,496 416,496C429.333,496 440.667,500.667 450,510C459.333,519.333 464,530.667 464,544C464,557.333 459.333,568.667 450,578C440.667,587.333 429.333,592 416,592C402.667,592 391.333,587.333 382,578C372.667,568.667 368,557.333 368,544ZM640,896L640,576L704,576L704,864C704,872.667 700.833,880.167 694.5,886.5C688.167,892.833 680.667,896 672,896Z" fill="#FFFFFF" fill-opacity="1">
  </path>
</svg>
